# xmcd CD database file
#
# Track frame offsets:
#	150
#	22612
#	45100
#	67892
#	93130
#	118182
#	146020
#	175822
#	190035
#	210797
#	227712
#	250025
#	268637
#	280702
#	298005
#	313345
#
# Disc length: 4387 seconds
#
# Revision: 0
# Processed by: cddbd v1.4PL0 Copyright (c) Steve Scherf et al.
# Submitted via: CDex 1.51
#
DISCID=d0112110
DTITLE=Eureka Brass Band of New Orleans and Jim Robinson's Band and Billie and De De Pierce - Jazz at  Preservation Hall
DYEAR=1963
DGENRE=Jazz
TTITLE0=Just A Little While To Stay Here (Eureka)
TTITLE1=Bye and Bye (Eureka)
TTITLE2=Whoopin' Blues (Eureka)
TTITLE3=Down in Honky Tonk Town (Eureka)
TTITLE4=Take Your Burden To The Lord (Eureka)
TTITLE5=Joe Avery's Blues (Eureka)
TTITLE6=Panama (Eureka)
TTITLE7=My Bucket's Got A Hole In It (Robinson)
TTITLE8=Five Foot Two Eyes Of Blue (Robinson)
TTITLE9=You Tell Me Your Dream (Robinson)
TTITLE10=Gettysburg March (Robinson)
TTITLE11=Love Songs Of The Nile (Billie)
TTITLE12=Shake It and Break It (Billie)
TTITLE13=Shine (Billie)
TTITLE14=San (Billie)
TTITLE15=Ciribiribin (Billie)
EXTD=YEAR: 1963
EXTT0=
EXTT1=
EXTT2=
EXTT3=
EXTT4=
EXTT5=
EXTT6=
EXTT7=
EXTT8=
EXTT9=
EXTT10=
EXTT11=
EXTT12=
EXTT13=
EXTT14=
EXTT15=
PLAYORDER=
